<svg viewBox="0 0 36 36" xmlns="http://www.w3.org/2000/svg" fill-rule="evenodd" clip-rule="evenodd" stroke-linejoin="round" stroke-miterlimit="1.414"><path d="M35 8a1 1 0 0 1 1 1v26a1 1 0 0 1-1 1H1a1 1 0 0 1-1-1V9a1 1 0 0 1 1-1h34zm-2.162 26L22.641 22.004l-2.563 2.412a3.167 3.167 0 0 1-.816.524 3.182 3.182 0 0 1-2.594-.032 3.194 3.194 0 0 1-.746-.492l-.052-.048-2.512-2.363L3.162 34h29.676zm-8.739-13.368L34 32.279V11.314l-9.901 9.318zM2 11.314v20.965l9.9-11.647L2 11.314zM3.522 10l13.709 12.903c.079.072.164.134.26.182.307.152.683.156.994.011.105-.049.198-.114.284-.193L32.478 10H3.522z" fill="#9c9da6"/></svg>